# xmcd
#
# Track frame offsets:
#	180
#	22895
#	67544
#	80130
#	108311
#	142876
#
# Disc length: 2161 seconds
#
# Revision: 1
# Processed by: cddbd v1.4PL0 Copyright (c) Steve Scherf et al.
# Submitted via: CDmax 1.8
#
DISCID=3e086f06
DTITLE=Ruben Vela - El Coco Rayado power mix y mucho mas
DYEAR=1995
DGENRE=Country
TTITLE0=El Coco Rayado Power Club Mix
TTITLE1=Popurri de exitos
TTITLE2=Huapango Taconazo
TTITLE3=Popurri en concerto
TTITLE4=Power polka popurri
TTITLE5=El Coco Rayado Power Radio Mix
EXTD=Country (South Texas country that is)
EXTT0=
EXTT1=
EXTT2=
EXTT3=
EXTT4=
EXTT5=
PLAYORDER=
